<svg fill="none" height="48" viewBox="0 0 48 48" width="48" xmlns="http://www.w3.org/2000/svg"><path d="m24 42c9.9411 0 18-8.0589 18-18s-8.0589-18-18-18-18 8.0589-18 18 8.0589 18 18 18z" fill="#1da1f2"/><path d="m20.706 33.4951c7.983 0 12.348-6.615 12.348-12.348 0-.189 0-.378-.009-.558.846-.612 1.584-1.377 2.169-2.25-.774.342-1.611.576-2.493.684.9-.54 1.584-1.386 1.908-2.403-.837.495-1.764.855-2.754 1.053-.792-.846-1.917-1.368-3.168-1.368-2.394 0-4.338 1.944-4.338 4.338 0 .342.036.675.117.99-3.609-.18-6.804-1.908-8.946-4.536-.369.639-.585 1.386-.585 2.178 0 1.503.765 2.835 1.935 3.609-.711-.018-1.377-.216-1.962-.54v.054c0 2.106 1.494 3.852 3.483 4.257-.36.099-.747.153-1.143.153-.279 0-.549-.027-.819-.081.549 1.728 2.151 2.979 4.05 3.015-1.485 1.161-3.357 1.854-5.391 1.854-.351 0-.693-.018-1.035-.063 1.899 1.242 4.185 1.962 6.633 1.962z" fill="#fff"/></svg>