<svg width="48" height="48" viewBox="0 0 48 48" fill="none" xmlns="http://www.w3.org/2000/svg">
<path d="M24 42C33.9411 42 42 33.9411 42 24C42 14.0589 33.9411 6 24 6C14.0589 6 6 14.0589 6 24C6 33.9411 14.0589 42 24 42Z" fill="#41C9B4"/>
<path fill-rule="evenodd" clip-rule="evenodd" d="M21.8968 20.7763V19.2466C21.8968 18.9679 21.9112 18.8749 21.9541 18.7319C22.0688 18.3388 22.4561 18.0458 22.9149 18.0458C23.3736 18.0458 23.7608 18.3459 23.8755 18.7319C23.9185 18.8749 23.933 18.9679 23.933 19.2466V21.6054C23.933 21.7484 23.933 21.8913 23.9042 22.02C23.8254 22.3773 23.5028 22.6991 23.1442 22.7777C23.0152 22.8062 22.8718 22.8062 22.7284 22.8062H20.3625C20.0829 22.8062 19.9897 22.792 19.8462 22.7491C19.4591 22.6347 19.1581 22.2487 19.1581 21.7913C19.1581 21.3338 19.4591 20.9478 19.8462 20.8334C19.9897 20.7905 20.0829 20.7763 20.3625 20.7763H21.8968ZM30.328 31.4697H17.6381V20.326C17.6381 20.183 17.6883 20.0615 17.7887 19.9614L21.0794 16.6804C21.1798 16.5805 21.3017 16.5304 21.4451 16.5304H30.328V31.4697ZM31.7692 14.0143C31.7047 14.0071 31.6186 14 31.4537 14H21.108C20.9935 14 20.8788 14.0071 20.7998 14.0143C20.3266 14.0572 19.9036 14.2788 19.5667 14.6147L15.7166 18.4532C15.3798 18.7892 15.1574 19.2108 15.1145 19.6827C15.1073 19.7612 15.1001 19.8756 15.1001 19.9899V32.5918C15.1001 32.7562 15.1073 32.8421 15.1145 32.9064C15.1718 33.4425 15.6593 33.9284 16.197 33.9856C16.2616 33.9929 16.3476 34 16.5125 34H31.4537C31.6186 34 31.7047 33.9929 31.7692 33.9856C32.3069 33.9284 32.7944 33.4425 32.8518 32.9064C32.8588 32.8421 32.8661 32.7562 32.8661 32.5918V15.4082C32.8661 15.2438 32.8588 15.1579 32.8518 15.0936C32.7944 14.5575 32.3069 14.0714 31.7692 14.0143Z" fill="white"/>
</svg>
